<svg xmlns="http://www.w3.org/2000/svg" xmlns:xlink="http://www.w3.org/1999/xlink" version="1.1" id="Your_Icon" x="0px" y="0px" width="100px" height="100px" viewBox="0 0 100 100" enable-background="new 0 0 100 100" xml:space="preserve">
<g>
	<path fill="#000000" d="M95.559,8.745H4.088C1.83,8.745,0,10.535,0,12.742v64.194c0,2.207,1.83,3.998,4.088,3.998h34.642v5.611   H23.095v4.711h53.456v-4.711H60.915v-5.611h34.644c2.258,0,4.088-1.791,4.088-3.998V12.742   C99.646,10.535,97.816,8.745,95.559,8.745z M91.28,78.146h-9.539V75.48h9.539V78.146z M91.472,72.939H8.174V16.739h83.298V72.939z"/>
	<path fill="#000000" d="M39.758,66.133h20.541c1.959,0,3.548-1.553,3.548-3.469V41.962c0-1.916-1.589-3.469-3.548-3.469h-0.564   v-5.965c0-5.234-4.354-9.492-9.707-9.492c-5.35,0-9.703,4.258-9.703,9.492v5.965h-0.566c-1.959,0-3.548,1.553-3.548,3.469v20.702   C36.21,64.58,37.799,66.133,39.758,66.133z M53.157,58.127h-2.398h-1.461H46.9l1.507-5.4c-1.054-0.562-1.768-1.654-1.768-2.912   c0-1.831,1.517-3.313,3.388-3.313c1.873,0,3.392,1.482,3.392,3.313c0,1.257-0.715,2.349-1.768,2.912L53.157,58.127z M44.314,32.529   c0-3.082,2.562-5.589,5.713-5.589c3.152,0,5.717,2.507,5.717,5.589v5.965h-11.43V32.529z"/>
</g>
</svg>